<?xml version="1.0" encoding="UTF-8"?><svg id="Layer_1" xmlns="http://www.w3.org/2000/svg" viewBox="0 0 195 195"><defs><style>.cls-1{fill:#000;}.cls-1,.cls-2,.cls-3{stroke-width:0px;}.cls-4{stroke-width:8px;}.cls-4,.cls-5,.cls-6{fill:none;stroke:#000;stroke-linecap:round;stroke-linejoin:round;}.cls-2{fill:#ffae4a;}.cls-5{stroke-width:1.5px;}.cls-6{stroke-width:2px;}.cls-3{fill:#ff4a50;}</style></defs><path class="cls-2" d="M16.16,58.9s7.64,10.42,17.05,10.73,17.53-1.26,33.53-17.26c17.61-17.61,33.83-12.61,36.6-11.69s-9.38,96.27-9.38,96.27l-34.6-40.91-30.14,40.91-13.05-78.06Z"/><polyline class="cls-4" points="11.99 33.92 29.21 136.96 59.36 96.05 90.73 136.96 106.72 33.92"/><circle class="cls-1" cx="44.73" cy="56.5" r="6.98"/><circle class="cls-1" cx="77.95" cy="56.5" r="6.98"/><line class="cls-6" x1="60.74" y1="62.42" x2="60.74" y2="64.98"/><path class="cls-6" d="M56.43,63.48s.92,2.37,4.31,2.35c3.86-.03,4.46-2.35,4.46-2.35"/><path class="cls-3" d="M105.76,60.9s-13.34,97.51-13.8,104.67c5.23,1.38,9.92-9.46,29.53-8.3s34.14,12.23,48.21,12.23,13.61-4.84,13.61-4.84l-15.39-103.74-30.48,38.91-31.68-38.91Z"/><polyline class="cls-4" points="184.81 161.94 167.59 58.9 137.45 99.81 106.07 58.9 90.08 161.94"/><circle class="cls-1" cx="119.35" cy="115.72" r="6.98"/><circle class="cls-1" cx="152.56" cy="115.72" r="6.98"/><line class="cls-5" x1="136.48" y1="129.03" x2="136.48" y2="126.46"/><path class="cls-6" d="M128.72,129.64s.82,2.37,3.82,2.35c3.42-.03,3.95-2.35,3.95-2.35"/><path class="cls-6" d="M136.48,129.64s.78,2.37,3.63,2.35c3.25-.03,3.76-2.35,3.76-2.35"/><path class="cls-1" d="M138.79,119.33c-1.53-.74-3.31-.73-4.83.03l-1.67.83c-1.1.57-1.28,2.08-.35,2.9l4.54,3.14,4.67-3.05c.9-.8.75-2.24-.29-2.85l-2.08-1Z"/></svg>