<?xml version="1.0" encoding="UTF-8"?><svg id="Layer_1" xmlns="http://www.w3.org/2000/svg" viewBox="0 0 15 15"><defs><style>.cls-1{fill:#000;}.cls-1,.cls-2,.cls-3{stroke-width:0px;}.cls-2{fill:#ffae4a;}.cls-4{stroke-width:.59px;}.cls-4,.cls-5,.cls-6{fill:none;stroke:#000;stroke-linecap:round;stroke-linejoin:round;}.cls-5{stroke-width:.11px;}.cls-6{stroke-width:.15px;}.cls-3{fill:#ff4a50;}</style></defs><path class="cls-2" d="M1.48,4.36s.56.76,1.25.79,1.28-.09,2.46-1.26c1.29-1.29,2.48-.92,2.68-.86s-.69,7.05-.69,7.05l-2.53-3-2.21,3-.96-5.72Z"/><polyline class="cls-4" points="1.17 2.53 2.43 10.08 4.64 7.09 6.94 10.08 8.11 2.53"/><circle class="cls-1" cx="3.57" cy="4.19" r=".51"/><circle class="cls-1" cx="6" cy="4.19" r=".51"/><line class="cls-6" x1="4.74" y1="4.62" x2="4.74" y2="4.81"/><path class="cls-6" d="M4.43,4.7s.07.17.32.17c.28,0,.33-.17.33-.17"/><path class="cls-3" d="M8.04,4.51s-.98,7.14-1.01,7.67c.38.1.73-.69,2.16-.61s2.5.9,3.53.9,1-.35,1-.35l-1.13-7.6-2.23,2.85-2.32-2.85Z"/><polyline class="cls-4" points="13.83 11.91 12.57 4.36 10.36 7.36 8.06 4.36 6.89 11.91"/><circle class="cls-1" cx="9.03" cy="8.53" r=".51"/><circle class="cls-1" cx="11.47" cy="8.53" r=".51"/><line class="cls-5" x1="10.29" y1="9.5" x2="10.29" y2="9.31"/><path class="cls-6" d="M9.72,9.55s.06.17.28.17c.25,0,.29-.17.29-.17"/><path class="cls-6" d="M10.29,9.55s.06.17.27.17c.24,0,.28-.17.28-.17"/><path class="cls-1" d="M10.46,8.79c-.11-.05-.24-.05-.35,0l-.12.06c-.08.04-.09.15-.03.21l.33.23.34-.22c.07-.06.06-.16-.02-.21l-.15-.07Z"/></svg>